<?xml version="1.0" encoding="UTF-8"?>
<svg width="200mm" height="200mm" version="1.1" viewBox="0 0 200 200" xmlns="http://www.w3.org/2000/svg" xmlns:cc="http://creativecommons.org/ns#" xmlns:dc="http://purl.org/dc/elements/1.1/" xmlns:rdf="http://www.w3.org/1999/02/22-rdf-syntax-ns#" xmlns:xlink="http://www.w3.org/1999/xlink">
 <defs>
  <linearGradient id="linearGradient981" x1="150.58" x2="126.5" y1="28.545" y2="172.75" gradientUnits="userSpaceOnUse">
   <stop offset="0"/>
   <stop stop-color="#1a1a1a" offset="1"/>
  </linearGradient>
  <linearGradient id="linearGradient2082" x1="91.824" x2="118.09" y1="165.65" y2="23.485" gradientUnits="userSpaceOnUse">
   <stop stop-color="#000d00" offset="0"/>
   <stop stop-color="#002a00" offset=".34934"/>
   <stop stop-color="#006b00" offset=".70901"/>
   <stop stop-color="#fff" offset="1"/>
  </linearGradient>
  <linearGradient id="linearGradient2114" x1="122.26" x2="122.26" y1="172.31" y2="20.393" gradientTransform="translate(0)" gradientUnits="userSpaceOnUse">
   <stop stop-color="#fff" offset="0"/>
   <stop stop-color="#fff" offset=".8399"/>
   <stop stop-color="#fff" stop-opacity="0" offset="1"/>
  </linearGradient>
  <linearGradient id="linearGradient995" x1="87.85" x2="113.89" y1="66.493" y2="-.031793" gradientTransform="matrix(1.2619 0 0 1.2619 -.084623 40.907)" gradientUnits="userSpaceOnUse">
   <stop offset="0"/>
   <stop stop-color="#4d4d4d" offset="1"/>
  </linearGradient>
  <linearGradient id="linearGradient997" x1="87.85" x2="113.89" y1="66.493" y2="-.031793" gradientTransform="matrix(1.2619 0 0 1.2619 -.084623 40.907)" gradientUnits="userSpaceOnUse">
   <stop offset="0"/>
   <stop stop-color="#333" offset="1"/>
  </linearGradient>
  <filter id="filter1009" x="-.08489" y="-.30249" width="1.1698" height="1.605" color-interpolation-filters="sRGB">
   <feGaussianBlur stdDeviation="4.1820438"/>
  </filter>
  <filter id="filter1009-9" x="-.19097" y="-.71421" width="1.3819" height="2.4284" color-interpolation-filters="sRGB">
   <feGaussianBlur stdDeviation="9.3598124"/>
  </filter>
  <linearGradient id="linearGradient1049" x1="154.16" x2="177.92" y1="199.53" y2=".46883" gradientUnits="userSpaceOnUse">
   <stop stop-color="#ccc" offset="0"/>
   <stop stop-color="#999" offset=".23575"/>
   <stop stop-color="#ececec" offset="1"/>
  </linearGradient>
  <filter id="filter1070" x="-.0099605" y="-.041203" width="1.0199" height="1.0824" color-interpolation-filters="sRGB">
   <feGaussianBlur stdDeviation="0.44873112"/>
  </filter>
 </defs>
 <metadata>
  <rdf:RDF>
   <cc:Work rdf:about="">
    <dc:format>image/svg+xml</dc:format>
    <dc:type rdf:resource="http://purl.org/dc/dcmitype/StillImage"/>
    <dc:title/>
   </cc:Work>
  </rdf:RDF>
 </metadata>
 <g>
  <rect width="200" height="200" ry=".74835" fill="url(#linearGradient1049)" opacity=".999" style="paint-order:markers stroke fill"/>
  <g>
   <ellipse transform="matrix(1.0842 .10644 .042952 1.2051 -12.407 -49.892)" cx="108.5" cy="165.24" rx="58.87" ry="15.61" filter="url(#filter1009)" opacity=".23262" style="paint-order:markers stroke fill"/>
   <ellipse transform="matrix(.36117 -.020551 .014308 .65148 101.83 63.468)" cx="108.5" cy="165.24" rx="58.87" ry="15.61" filter="url(#filter1009-9)" opacity=".22192" style="paint-order:markers stroke fill"/>
   <path d="m46.244 163.32 83.701 14.132 24.422-11.11-0.31557-0.33266-86.658-14.695z" filter="url(#filter1070)"/>
  </g>
 </g>
 <g transform="translate(3.3145 3.6406)">
  <path d="m128.59 22.736-29.52 0.84866-56.293 7.4286v127.87l83.715 13.869 2.0985-54.061z" fill="#006f2f"/>
  <path d="m126.5 19.966 24.086 8.5798 9e-3 133.13-24.095 11.077-9e-3 -53.554 2.108-0.50735-7.706-5.4396-2.3049 0.14865 1e-3 -34.073c-0.20512-0.0187-0.61837-0.04368-0.61837-0.04368l8.5293-5.8599z" fill="url(#linearGradient981)"/>
  <path d="m126.5 19.966-27.421 3.6187-38.908 138.18 66.33 10.988-0.51387-53.432-8.0142-5.8803c1e-5 -11.386 4e-5 -22.771 4e-5 -34.157l8.528-5.8599z" fill="url(#linearGradient2082)"/>
  <path d="m128.6 118.68-2.1178 0.51446 0.0104 53.554-0.17662-0.0298-0.33725-53.403-8.0142-5.8803 2.9142-0.1968m5.6134-93.278v53.458l-0.495 0.33954 1e-3 -53.733" fill="url(#linearGradient2114)" stroke-opacity="0" style="mix-blend-mode:normal;paint-order:markers stroke fill"/>
  <path d="m128.59 22.736 20.572 7.2795v130.83l-20.572 9.277v-51.434l-7.706-5.4396v-33.668l7.706-5.7401z" fill="#01a5d4"/>
  <path d="m128.59 73.844v44.847l-7.706-5.4396v-33.668z" fill="#05c5d9"/>
  <path d="m130.82 96.272 3.0713 1.8068v11.597l-3.0713-0.20742zm13.382 19.434v-3.2288l3.0713 0.20742v10.388l-3.0713-0.20742v-3.2288l-13.382-0.90369v-3.9308zm3.0713 9.4728v3.9308l-16.454-1.1111v-3.9308zm0 10.669v3.9308l-16.454-1.1111v-3.9308zm-13.382 5.1328v10.388l-3.0713-0.20742v-10.388zm3.6198 18.521v-5.7821l3.0713 0.20741v4.1834l3.6198-1.6395v-2.2995l3.0713 0.20742v4.6327l-16.454 7.4523v-3.9308zm3.0713-29.44v3.9308l-3.0713-0.20741v-3.9308zm0 11.371v10.388l-3.0713-0.20741v-10.388zm0-39.422v8.116l-3.0713-0.20741v-9.7132zm3.6198 2.1284 3.0713 1.8068v4.6327l-3.0713-0.20742zm3.0713 37.745v10.388l-3.0713-0.20742v-10.388z" fill="#002a63" stroke-width=".31023"/>
  <g transform="matrix(0 1 -.59918 0 196.46 45.929)">
   <path d="m114.92 78.928 9.277 34.334-50.376 2e-3 9.6644-34.335z" fill="#095a6f"/>
   <path d="m41.983 78.927 41.501 0.0016-9.6644 34.335-38.679 0.0106z" fill="#001d25"/>
   <path d="m81.8 85.611 3.6628-0.09578v21.506l-3.6778-0.0752zm5.625 17.417 9.6802 0.1204v4.2498l-9.6802-0.30102zm17.241-4.3921-5.5986-0.07526v-4.5207l3.7628-0.06021-1.7555-4.4072-2.0073-0.01504v-4.3551l3.9105-0.07526 9.3643 22.707-3.8283-0.10537zm-27.837-4.4278 3.6628-0.0319v4.1311l-3.6628-0.03191zm10.596-0.07784 9.6795-0.06021v4.4605l-9.6795-0.07526zm0-8.672 9.6802-0.19566v4.325l-9.6802 0.09031z" fill="#64f6f6" stroke-width=".32704"/>
   <path d="m76.829 94.208 2.3617-0.02067-1.1513 4.0987-1.2104-0.0108zm-30.872 11.685 1.4903-3.3919 10.806 0.13545v3.6026zm17.267-15.997-3.0087 0.03762v-3.8133l9.6802-0.21825v3.9412l-3.0087 0.03762v16.608l-3.6628-0.0957zm8.6337-4.0402 3.6628-0.10643v20.986l-3.6628-0.0903zm-21.167 8.5753 7.5627-0.0602v3.6778l-9.1112-0.13546zm1.7405-4.4372 1.5053-3.723 4.3168-0.09784v3.7606z" fill="#33d3ff"/>
  </g>
 </g>
 <g>
  <path d="m46.095 162.52v-22.071l83.714 13.902-1.5e-4 22.038z" fill="#f2f2f2"/>
  <text transform="matrix(.79094 .12918 0 1.2643 0 0)" x="65.528458" y="118.80419" fill="url(#linearGradient995)" font-family="sans-serif" font-size="16.405px" letter-spacing="0px" stroke="url(#linearGradient997)" stroke-width=".63095" word-spacing="0px" style="line-height:1.25" xml:space="preserve"><tspan x="65.528458" y="118.80419" fill="url(#linearGradient995)" font-family="sans-serif" font-size="16.405px" font-weight="bold" stroke="url(#linearGradient997)" stroke-width=".63095">FExplorer</tspan></text>
 </g>
 <g transform="matrix(.33337 0 0 .33337 46.815 59.406)">
  <g>
   <path d="m205.24 205.33v3.4394c0 5.54-4.5348 10.907-10 10l-165.82-27.521c-5.4652-0.90704-10-4.46-10-10v-3.4394z" opacity=".4"/>
   <path d="m28.66 16.871 126.17-11.181 50.163 44.08 0.24173 156.04c9e-3 5.54-4.525 10.846-10 10l-165.8-25.634c-5.4749-0.8465-9.972-4.4601-10-10l-0.77401-153.3c-0.02797-5.5399 4.4825-9.5013 10-10z" fill="#607d8b"/>
   <path d="m204.99 52.621c-12.913-0.0125-27.265 1.3422-40.178 1.3081-8.1511-0.06177-10.038-5.8043-9.9994-9.9522v-3.2079l50.169 9.011z" fill="#4d646f"/>
   <path d="m204.99 49.775c-12.913-0.0125-27.133 1.5237-40.046 1.4897-8.1511-0.06177-10.038-5.8522-10-10l-0.11858-35.571z" fill="#b1d1e0"/>
   <path d="m28.823 16.831 126-11.133 0.00359 3.0503-126.01 11.083c-5.1455 0.1499-8.2514 3.9325-10.122 7.1626 0-5.54 4.6033-9.6774 10.122-10.163z" fill="#708a96"/>
   <path d="m19.248 142.05 185.9 16.765 0.019 4.3587-185.91-17.374zm-0.34382-68.697 186.12-1.8067 0.0187 13.097-186.07-0.85594z" fill="#b1d1e0" opacity=".5"/>
   <path d="m130.28 171.51h18.467l-0.36589 5.4176-12.35-1.0977 0.0813 5.446c0.55733-0.15199 1.1146-0.266 1.672-0.342 0.56999-0.0886 1.159-0.133 1.767-0.133 3.458 0 6.1496 0.86764 8.0749 2.603 1.9253 1.7226 2.888 4.1293 2.888 7.2199 0.26657 12.771-15.052 7.8002-21.478 5.443l-0.24393-3.6429c1.5453 0.88666 3.3742 1.9176 4.7548 2.3609 1.3933 0.4433 2.7043 0.66496 3.9329 0.66496 1.7733 0 3.1666-0.43066 4.18-1.292 1.026-0.87399 1.539-2.052 1.539-3.534 1.2627-5.8738-9.3644-7.454-13.082-5.268zm-15.977 0.81914-8.0179 11.875h8.0179zm-1.216-6.0229h7.5221l-0.0406 17.898 4.0469 3.7402-0.0407 3.878-4.0469-0.73178v5.0866l-7.0379-1.301 0.20327-4.8833-11.765-1.5855-0.20328-5.1722zm-22.405 18.897h6.265v5.7949l-4.1467 5.465-4.5004-0.45995c0.71137-3.5323 0.97778-5.3007 2.4112-8.5783zm-8.6628-10.419c2.4258 1.9893 2.0915 3.7501 2.4417 7.3847 0.47038 10.582-11.706 7.9082-18.442 5.3611l-0.0575-3.7456c3.4105 1.9161 13.848 4.2184 13.945-1.824 0-1.292-1.0207-1.2036-2.0847-1.8623-1.9845-1.4784-3.1479-2.6066-7.3987-2.5306l-0.17248-4.2807 3.5379 0.0288c1.8366 0.0149 3.2046-0.28498 4.1039-0.85498 0.89932-0.58268-0.26087-2.0379-0.26087-3.2159-5.233-3.5314-7.5684-2.0022-10.569-1.268l-0.15092-3.0538 0.15092-2.3042c1.444-0.40533 2.8753-0.70932 4.2939-0.91198 1.4186-0.20267 2.812-0.304 4.1799-0.304 3.686 0 3.3512 0.48601 5.1751 1.702 3.3218 3.8688 4.6218 8.5635 1.3083 11.68zm-29.467 4.8311 8.7722 2.2816v5.3769l-16.874-2.358-0.12196-5.2143 7.2244-6.2117c0.92466-0.83599 1.6086-1.653 2.052-2.451 0.44333-0.798 0.66499-1.6276 0.66499-2.489 0-1.33 0.76998-2.1564-0.12934-2.967-3.4247-2.0468-6.7273-1.0326-9.4515 0.63399l-0.12705-2.7802 0.12705-3.4518c1.6466-0.54467 3.2743-0.95634 4.8829-1.235 1.6086-0.29133 0.99027 0.62003 2.5356 0.62003 3.3946 0 6.0292 0.74732 7.9039 2.242 0.80706 1.178 0.23423 2.7451 0.61616 3.8688 1.822 5.3608-2.0945 9.9327-5.2368 11.828-1.5379 1.0763-2.1005 1.5045-2.8381 2.3066zm-27.806-0.63575 5.1261-3.7807 0.36589-12.765-5.33 0.83946-0.08131-2.8334 5.3326-3.5125 4.8805 0.12196-0.12915 19.133 5.4177 5.3053-0.34004 2.5132-14.957-2.2767zm153.45 17.481c1.6816 7.3623 16.313 6.5655 16.994 5.6538l-4e-3 7.553c-10.571 2.003-22.816-0.20714-25.921-14.328l-4.0348-0.68993-0.0575-3.4325 4.6386 0.11499c2.3918 1.7432 0.88609-2.9177 0.62904-4.5392l-5.1816-0.80492-0.11499-3.5762 5.9735 0.14373c0.47046-1.9 1.839-1.8186 2.7256-3.3205 0.90476-1.5019 1.9724-2.7685 3.2028-3.7999 1.2485-1.0314 2.6509-1.8186 4.2071-2.3614 1.5562-0.56095 3.248-0.84142 5.0756-0.84142 0.77809 0 1.5109 0.018 2.1986 0.0543s1.3571 0.10848 2.0085 0.21716c0.65143 0.0906 1.2938 0.21717 1.9271 0.37999 0.65143 0.16286 1.33 0.37096 2.0357 0.62429l0.45105 3.6283 0.12389 3.3171c-3.8578-2.0743-11.366-4.0699-15.466-0.87833-1.2847 1.1038 0.0363 2.4422-0.57894 4.3603l9.6139 0.34148 0.061 4.2816-12.226-1.2603c-0.36181-0.0373 1.5718 1.9344 1.5718 2.2782v2.1171c0 0.37998 0.018 0.79615 0.0544 1.2485l10.578-0.0287-0.40246 5.0998z" fill="#4d646f" stroke-width=".36769"/>
  </g>
  <path d="m129.98 165.89 18.7 1.8973v5.6644l-12.695-1.2649v4.0152c1.0554-0.17117 2.1798-0.12829 3.1946-0.17314 6.7326 0.71083 11.161 4.7124 11.466 10.096 0.80124 8.8673-5.5953 10.842-12.479 9.7751-3.3502-0.0376-6.5298-2.0218-9.3946-3.1746l0.0862-5.9006c4.0249 1.8233 7.73 4.9573 12.329 2.8053 1.026-0.87399 1.539-2.052 1.539-3.534 0-1.4946-0.51299-2.6726-1.539-3.534-1.0133-0.86133-2.4066-1.292-4.18-1.292-2.1945-0.0366-5.1986-0.0353-6.9709 0.7521zm-16.469 4.758-6.9255 9.805 6.983 0.86242zm-0.81351-6.6554 7.9594 0.63244-0.11499 17.898 3.932 0.22998 0.11499 5.3584-4.1619-0.34497 0.0575 5.1104-6.8009-1.0924v-4.9379l-11.945-1.6098 0.11499-6.2124zm-22.076 17.421 6.5147 0.60982 0.04066 5.8356-4.3677 6.2738-4.1689-0.69113 1.7373-6.1925zm-10.539-8.69c2.9145 1.8354 4.2421 3.2345 4.5583 7.1239-0.22308 10.565-12.285 6.9579-18.675 4.3333l0.03164-5.3626c5.2946 2.3163 11.716 5.3765 11.932-0.18539-0.90034-4.4652-5.0239-3.354-7.7872-4.3067l-0.05749-4.6257c4.3951 0.41202 7.7854 1.2902 7.151-2.5473-1.0017-4.2223-7.4061-3.2036-10.339-2.2454l0.11499-5.3867c6.7238-0.70024 15.891-0.50305 16.993 6.5784 0.32881 3.5422-0.91927 5.9102-3.922 6.6241zm-28.74 4.8826 10.126 1.3799v5.3769l-17.108-2.2998-0.05749-4.9744 7.6885-6.5377c0.88328-0.85667 1.5835-1.442 2.0926-2.207 0.50575-0.75996 0.64466-1.648 0.64466-2.5093 0-1.33-0.1854-2.0954-1.0847-2.906-1.7488-1.6813-3.2361-1.2096-4.8973-1.0035-1.3553 0.48133-2.643 0.55285-4.1883 1.5155l-0.12196-5.8254c1.6466-0.54466 3.3822-0.72219 4.761-0.82844 1.6725-0.0361 3.1359-0.0271 4.5683 0.29479 4.5392 0.93444 7.3661 4.199 7.4012 7.9237 0.09896 1.5837 0.03243 3.4203-0.9124 4.6978-0.79799 1.33-2.6488 2.9981-5.2074 5.24zm-26.485-3.1348 4.9651 0.45996-4.95e-4 -15.001-5.0047 0.51423v-4.8966l4.9667-0.51424 5.2871 0.60982v20.15l5.08 0.63244 0.17248 5.0539-15.581-2.5872zm152.93 18.659c1.7584 7.4245 11.917 8.315 17.338 6.1779l0.0714 6.6112c-12.746 4.251-25.207-4.262-25.971-14.067l-4.03-0.38901 0.11499-4.6686 3.115 0.43121c-0.052-1.4366-0.10627-2.9687 0.14034-4.3667l-3.4567-0.40246 0.22997-4.5249 4.1049 0.34496c2.5312-11.765 17.105-13.509 25.508-8.1276v6.9741c-5.6263-4.1477-16.563-4.3154-17.051 2.3034l10.688 1.2649 0.0575 4.7956-11.929-1.4924c-0.092 2.1178-4e-3 2.9082 0.17248 4.2661l11.785 1.5524-0.0862 4.6399z" fill="#fff" stroke-width=".36769"/>
  <g>
   <path d="m149.41 138.78 19.514 1.7317-0.0158 2.8209-19.599-1.4002zm0.18233-26.976 19.384 0.5622-0.0288 2.9689-19.466-0.9774zm-105.6 19.69 80.725 5.4916-0.061 3.2796-80.684-5.9794zm-0.01785-23.655 80.739 2.884 0.0144 2.7146-80.759-2.8663z" fill="#4d646f"/>
   <path d="m149.65 126.59 19.38 1.1499-0.11498 12.805-19.495-1.6673zm0.22998-27.23 19.15 0.34497-0.0575 12.69-19.38-0.57494zm-106.02 21.193 80.846 4.4846v12l-80.731-5.5195zm0.45996-23.78 80.386 1.9548v12l-80.731-2.8747z" fill="#fff"/>
   <path d="m118.2 54.819 30.607-1.2595 0.30106 8.3315 0.0176 2.3401-30.896 1.0924zm-32.142-10.808c10.947-28.79 21.676-1.8831 22.022 18.741l0.0391 2.332-10.144 0.13682 0.37881-26.136-7.6916 18.989h-9.6843l-6.6175-15.729-0.0267 24.185-8.9607-0.28747 0.01888-26.005c0.016537-22.845 10.105-22.965 20.666 3.772zm-38.457 0.22034 13.982 22.154h-12.376l-6.8067-10.891-6.5853 11.054-11.372 0.20327 12.673-21.658z" fill="#4d646f" stroke-width=".3665"/>
  </g>
  <path d="m117.81 19.752 11.18-0.73178 0.24393 34.254 19.549-0.48786 0.32524 9.1006-30.891 0.40655zm-52.594 4.2281 12.359-0.97571 8.4095 20.518 8.4676-21.738 13.468-1.057 0.16262 42.053-10.082-0.08131v-29.433l-8.7696 22.075-6.5162 0.16262-8.363-20.937v29.108l-8.9728-0.08131zm-17.382 20.251 12.115 19.525-9.5303 0.32524-7.7764-12.777-8.0145 13.265-8.8566-0.081309 11.22-19.444-10.721-17.893 8.8276-0.8944 7.5441 11.366 7.4338-12.748 9.5362-0.56917z" fill="#fff" stroke-width=".3665"/>
 </g>
</svg>
