<?xml version="1.0" encoding="UTF-8"?>
<svg width="64" height="64" version="1.1">
 <g>
  <g transform="matrix(0,-1,-1,0,0,0)">
   <rect x="-59" y="-58" width="52" height="52" rx="2.5" opacity=".2"/>
   <rect x="-58" y="-58" width="52" height="52" rx="2.5" fill="#4f4f4f"/>
  </g>
  <rect x="12" y="31" width="40" height="24" rx="2.5" opacity=".2"/>
  <rect x="12" y="30" width="40" height="24" rx="2.5" fill="#f88585"/>
  <path d="m12 48v3.5c0 1.384 1.115 2.5 2.5 2.5h35c1.384 0 2.5-1.116 2.5-2.5v-3.5z" fill="#f54242"/>
  <path d="m20 7v17.5c0 1.386 1.114 2.5 2.5 2.5h27c1.384 0 2.5-1.114 2.5-2.5v-17.5zm20 4h6c1.108 0 2 0.892 2 2v8c0 1.108-0.892 2-2 2h-6c-1.108 0-2-0.892-2-2v-8c0-1.108 0.892-2 2-2z" opacity=".2"/>
  <path d="m20 6v17.5c0 1.386 1.114 2.5 2.5 2.5h27c1.384 0 2.5-1.114 2.5-2.5v-17.5zm20 4h6c1.108 0 2 0.892 2 2v8c0 1.108-0.892 2-2 2h-6c-1.108 0-2-0.892-2-2v-8c0-1.108 0.892-2 2-2z" fill="#b7b7b7"/>
  <path d="m8.5 6c-1.385 0-2.5 1.115-2.5 2.5v1c0-1.385 1.115-2.5 2.5-2.5h47c1.385 0 2.5 1.115 2.5 2.5v-1c0-1.385-1.115-2.5-2.5-2.5z" fill="#fff" opacity=".1"/>
  <text x="18.476562" y="43.53503" fill="#860c0d" filter="url(#filter892)" font-family="sans-serif" font-size="12px" opacity=".998" style="line-height:1.25" xml:space="preserve"><tspan x="18.476562" y="43.53503" fill="#860c0d" font-family="sans-serif" font-size="12px" font-weight="bold">PDF</tspan></text>
 </g>
</svg>
