<?xml version="1.0" encoding="UTF-8"?>
<svg enable-background="new 0 0 56 56"
   	version="1.1" viewBox="0 0 56 56" xml:space="preserve"
   	xmlns="http://www.w3.org/2000/svg">
	<g>
		<path d="m36.985 0h-29.022c-0.808 0-1.463 0.655-1.463 1.926v53.074c0 0.345 0.655 1 1.463 1h40.074c0.808 0 1.463-0.655 1.463-1v-42.022c0-0.696-0.093-0.92-0.257-1.085l-11.636-11.636c-0.165-0.164-0.389-0.257-0.622-0.257z"
    			fill="#e9e9e0"/>
		<polygon points="37.5 0.151 37.5 12 49.349 12"
       			fill="#d9d7ca"/>
		<g>
			<path d="m48.037 56h-40.074c-0.808 0-1.463-0.655-1.463-1.463v-15.537h43v15.537c0 0.808-0.655 1.463-1.463 1.463z"
    				fill="#2b9d00"/>
			<path d="m25 32c-0.11 0-0.223-0.019-0.333-0.058-0.521-0.184-0.794-0.755-0.61-1.276l6-17c0.185-0.521 0.753-0.795 1.276-0.61 0.521 0.184 0.794 0.755 0.61 1.276l-6 17c-0.145 0.412-0.531 0.668-0.943 0.668zm-2.9998-8c-0.256 0-0.512-0.098-0.707-0.293l-6-6c-0.391-0.391-0.391-1.023 0-1.414s1.023-0.391 1.414 0l6 6c0.391 0.391 0.391 1.023 0 1.414-0.195 0.195-0.451 0.293-0.707 0.293zm-6 6c-0.256 0-0.512-0.098-0.707-0.293-0.391-0.391-0.391-1.023 0-1.414l6-6c0.391-0.391 1.023-0.391 1.414 0s0.391 1.023 0 1.414l-6 6c-0.195 0.195-0.451 0.293-0.707 0.293zm24 0c-0.256 0-0.512-0.098-0.707-0.293l-6-6c-0.391-0.391-0.391-1.023 0-1.414s1.023-0.391 1.414 0l6 6c0.391 0.391 0.391 1.023 0 1.414-0.195 0.195-0.451 0.293-0.707 0.293zm-6-6c-0.256 0-0.512-0.098-0.707-0.293-0.391-0.391-0.391-1.023 0-1.414l6-6c0.391-0.391 1.023-0.391 1.414 0s0.391 1.023 0 1.414l-6 6c-0.195 0.195-0.451 0.293-0.707 0.293z"
    				fill="#2b9d00"/>
			<g transform="translate(-.57635)"
 				fill="#fff"
 				aria-label="XSL">
				<path d="m18.038 48.937-0.19636-0.3296-3.3732-5.6944h2.0267l2.2862 3.864 0.26649 0.45583 3.4854 5.8767h-2.0267zm0.02104-2.1038 2.2932-3.9202h2.0267l-3.3732 5.7645-2.5947 4.4321h-2.0267z"/>
				<path d="m28.44 53.215q-0.72933 0-1.4306-0.14727-0.69427-0.14727-1.3114-0.42778-0.61011-0.28752-1.094-0.68725l0.89062-1.5849q0.58908 0.48388 1.3605 0.75037 0.77141 0.25947 1.5849 0.25947 0.93971 0 1.4587-0.31558 0.51895-0.32259 0.51895-0.90465v-7e-3q0-0.40674-0.23142-0.64518t-0.6031-0.35064q-0.37168-0.1122-0.95374-0.20337-0.02104-7e-3 -0.04208-7e-3 -0.01403 0-0.03506-7e-3l-0.15428-0.02104q-1.0239-0.16133-1.6971-0.39976-0.67323-0.24545-1.1431-0.84855-0.46986-0.61011-0.46986-1.7251v-7e-3q0-0.9888 0.44181-1.6901t1.2833-1.0659q0.84154-0.37168 2.0337-0.37168 0.547 0 1.115 0.12623 0.57505 0.12623 1.122 0.36466t1.0379 0.57505l-0.81348 1.627q-0.58908-0.40674-1.2343-0.63115-0.63816-0.22441-1.2272-0.22441-0.88361 0-1.3675 0.29454-0.48388 0.28752-0.48388 0.81348v7e-3q0 0.44181 0.25246 0.70128 0.25246 0.25246 0.62414 0.37168 0.37168 0.11922 1.0449 0.25246 0.02805 7e-3 0.0561 0.01403 0.02805 0 0.0561 7e-3 0.04208 7e-3 0.07714 0.02104 0.04208 7e-3 0.08415 0.01403 0.96776 0.18934 1.6129 0.46284 0.65219 0.26649 1.087 0.86959 0.43479 0.59609 0.43479 1.634v0.01403q0 0.97478-0.45583 1.669-0.45583 0.69427-1.3324 1.0589-0.86959 0.36466-2.0968 0.36466z"/>
				<path d="m35.938 42.913h1.9215v10.197h-1.9215zm0.85556 8.3452h5.9749v1.8514h-5.9749z"/>
			</g>
		</g>
	</g>
</svg>
